<svg xmlns="http://www.w3.org/2000/svg" viewBox="0 0 1200 720" role="img" aria-label="Ambiance bien-être avec galets, feuilles et bougie">
<defs>
<linearGradient id="bg" x1="0" y1="0" x2="1" y2="1"><stop offset="0" stop-color="#fff8ed"/><stop offset=".55" stop-color="#eadcc4"/><stop offset="1" stop-color="#a7b47a"/></linearGradient>
<radialGradient id="sun" cx="35%" cy="25%" r="45%"><stop offset="0" stop-color="#fff" stop-opacity=".95"/><stop offset="1" stop-color="#fff" stop-opacity="0"/></radialGradient>
<filter id="blur"><feGaussianBlur stdDeviation="6"/></filter>
</defs>
<rect width="1200" height="720" fill="url(#bg)"/><rect width="1200" height="720" fill="url(#sun)"/>
<g opacity=".22" filter="url(#blur)"><circle cx="170" cy="110" r="38" fill="#fff"/><circle cx="300" cy="180" r="24" fill="#fff"/><circle cx="900" cy="135" r="32" fill="#fff"/><circle cx="1030" cy="250" r="48" fill="#fff"/></g>
<g transform="translate(690 285)"><ellipse cx="145" cy="250" rx="230" ry="40" fill="#766141" opacity=".22"/><ellipse cx="150" cy="170" rx="174" ry="58" fill="#9d8b72"/><ellipse cx="150" cy="156" rx="160" ry="48" fill="#c2b39b"/><ellipse cx="160" cy="88" rx="130" ry="46" fill="#8e826e"/><ellipse cx="160" cy="76" rx="118" ry="39" fill="#c8baa2"/><ellipse cx="155" cy="21" rx="88" ry="35" fill="#7d7467"/><ellipse cx="155" cy="11" rx="76" ry="29" fill="#cfc5b2"/></g>
<g transform="translate(885 380)"><ellipse cx="130" cy="140" rx="95" ry="15" fill="#6b5238" opacity=".25"/><rect x="45" y="72" width="170" height="72" rx="34" fill="#b78344"/><ellipse cx="130" cy="76" rx="80" ry="25" fill="#d6a25b"/><ellipse cx="130" cy="72" rx="54" ry="14" fill="#fff4d6"/><path d="M130 63 C118 43,135 25,129 3 C154 31,146 50,130 63Z" fill="#f3a43b"/><path d="M132 56 C125 43,136 31,133 18 C146 36,142 49,132 56Z" fill="#fff6b0"/></g>
<g transform="translate(425 210) rotate(-18)"><path d="M55 260 C180 180,240 88,315 15" stroke="#516d32" stroke-width="9" fill="none" stroke-linecap="round"/><g fill="#64823d" stroke="#3d5728" stroke-width="3"><path d="M110 205 C55 180,55 130,132 138 C154 168,148 193,110 205Z"/><path d="M160 158 C105 130,112 83,188 92 C210 124,199 150,160 158Z"/><path d="M213 107 C161 78,174 38,242 42 C263 72,250 99,213 107Z"/><path d="M242 80 C278 36,329 38,332 99 C296 119,264 108,242 80Z"/><path d="M185 145 C225 110,274 123,270 179 C231 193,203 178,185 145Z"/><path d="M128 198 C164 166,210 178,207 230 C170 244,144 230,128 198Z"/></g></g>
<path d="M0 610 C200 560,350 650,560 595 C760 545,935 625,1200 570 L1200 720 L0 720Z" fill="#f7efe1" opacity=".65"/>
</svg>